# xmcd
#
# Track frame offsets:
#	150
#	15692
#	28510
#	44535
#	57696
#	86920
#	101915
#	127266
#	139515
#	160251
#	175002
#	192488
#	208613
#	220623
#	239298
#
# Disc length: 3495 seconds
#
# Revision: 1
# Processed by: cddbd v1.5.2PL0 Copyright (c) Steve Scherf et al.
# Submitted via: audiograbber 1.83.01
#
DISCID=dd0da50f
DTITLE=Siggi Fassl - I did the same mistake again
DYEAR=2009
DGENRE=Blues
TTITLE0=After You
TTITLE1=Thirteen Question Method
TTITLE2=Ain't It A Shame
TTITLE3=You Faded Away Like The Morning Dew
TTITLE4=I Did The Same Mistake Again
TTITLE5=Louis Collins
TTITLE6=John Henry
TTITLE7=Mercury Blues
TTITLE8=Bad Alcohol
TTITLE9=Mama Talk To Your Daughter
TTITLE10=Brownsvile Blues
TTITLE11=Walkin' My Blues Away
TTITLE12=My Creole Belle
TTITLE13=Jesus Is On The Mainline
TTITLE14=Feels Like Rain
EXTD=
EXTT0=
EXTT1=
EXTT2=
EXTT3=
EXTT4=
EXTT5=
EXTT6=
EXTT7=
EXTT8=
EXTT9=
EXTT10=
EXTT11=
EXTT12=
EXTT13=
EXTT14=
PLAYORDER=
